<svg xmlns="http://www.w3.org/2000/svg" width="106.087" height="106.087" viewBox="0 0 106.087 106.087"><path d="M39.783,53.044A13.261,13.261,0,0,1,53.044,39.783,13.261,13.261,0,0,1,66.3,53.044,13.261,13.261,0,0,1,53.044,66.3,13.261,13.261,0,0,1,39.783,53.044ZM96.142,66.3A9.9,9.9,0,0,1,86.2,56.359,49.5,49.5,0,0,0,84.8,45.17a33.274,33.274,0,0,0-3.678-9.739A33.039,33.039,0,0,0,53.044,19.891a32.341,32.341,0,0,0-16.629,4.456A33.154,33.154,0,0,0,24.347,36.414a33.259,33.259,0,0,0,0,33.258A33.214,33.214,0,0,0,36.414,81.74a32.984,32.984,0,0,0,24.763,3.418,33.812,33.812,0,0,0,6.474-2.278q2.484-1.241,4.921-2.278a10.548,10.548,0,0,1,3.678-1.037A9.9,9.9,0,0,1,86.2,89.511a12.022,12.022,0,0,1-1.037,5.128,7.451,7.451,0,0,1-2.072,2.953l-.931.828q-.1,0-.1.053t-.1.053a56.269,56.269,0,0,1-28.906,7.562,52.034,52.034,0,0,1-20.616-4.2A51.9,51.9,0,0,1,4.2,73.66a52.741,52.741,0,0,1,0-41.233A51.9,51.9,0,0,1,32.427,4.2,52.034,52.034,0,0,1,53.044,0,51.538,51.538,0,0,1,85.108,10.774a51.554,51.554,0,0,1,18.907,27.662,65.528,65.528,0,0,1,2.072,17.923A9.9,9.9,0,0,1,96.142,66.3Z" fill="#2ec8ce"/></svg>